<?xml version="1.0" encoding="utf-8"?>
<!-- Generator: Adobe Illustrator 18.1.1, SVG Export Plug-In . SVG Version: 6.00 Build 0)  -->
<svg version="1.1" id="Layer_1" xmlns="http://www.w3.org/2000/svg" xmlns:xlink="http://www.w3.org/1999/xlink" x="0px" y="0px"
	 viewBox="0 0 317 187" enable-background="new 0 0 317 187" xml:space="preserve">
<g>
	<path fill="#010101" d="M169.3,23.8c3.8,0,7.7,0.1,11.5,0.1c15.3,0.1,30.5,0.2,45.8,0.2c10.4,0.1,20.8,0.1,31.2,0.2
		c0.3,0,0.7,0,1.3,0c-0.6,1-1.1,1.9-1.6,2.7c-0.3,0.5-0.9,0.4-1.4,0.5c-5.9,0.2-11.8,0.5-17.7,0.7c-11.6,0.5-23.2,0.9-34.7,1.4
		c-12.7,0.5-25.3,1-38,1.5c-0.8,0-1.6,0.1-2.4,0.4c2.3,0,4.7,0,7,0c11.3,0,22.6-0.3,34,0.1c16.5,0.5,32.9,0.1,49.4,0.2
		c1.1,0,0.9,0.3,0.6,1c-0.7,1.6-1.8,2.2-3.6,2.3c-14.8,0.5-29.6,1.1-44.3,1.7c-14.8,0.6-29.5,1.2-44.3,1.8c-0.7,0-1.3,0.1-2,0.3
		c30,0.2,60.1,0.3,90.2,0.5c-0.6,2.4-1.4,3.1-3.6,3.2c-10.3,0.4-20.6,0.9-30.9,1.3c-13.9,0.6-27.7,1.1-41.6,1.7
		c-4.8,0.2-9.6,0.4-14.4,0.6c-0.2,0.2-0.4,0.2-0.7,0.2c-0.7,0-1.5,0.1-2.2,0c0.9,0.2,2-0.1,3,0.1c6.3,0,12.7,0,19,0
		c0.4,0,0.9-0.1,1.3,0.1c3.6,0,7.3,0.1,10.9,0.1c6.4,0,12.7,0,19.1,0.1c10.6,0.1,21.3,0.1,31.9,0.2c1.3,0,2.5,0,4.1,0
		c-0.8,1.3-1.4,2.4-2.1,3.5c-0.2,0.4-0.7,0.4-1.1,0.5c-0.4,0.1-0.9,0-1.3,0c-38.2,0-76.3,0-114.5,0c-1.9,0-3-0.6-3.9-2.3
		c-5.6-10.4-11.3-20.7-16.9-31c-0.1-0.2-0.2-0.3-0.3-0.5c0.1-0.1-0.1-0.3,0.1-0.2c0.3,0,0.6,0,1,0c52.1,0,104.2,0,156.4,0
		c-0.8,2.4-2.5,3.1-5,3.2c-11.7,0.3-23.4,0.9-35.1,1.4c-16.8,0.7-33.7,1.4-50.5,2c-1.2,0-2.3,0.1-3.5,0.2c-0.6,0.2-1.2,0-1.7,0.1
		C168,23.8,168.7,23.6,169.3,23.8z"/>
	<path fill="#010101" d="M295,41.2c-0.3,0.6-0.7,1.1-1,1.7c-0.9,0.2-1.4,0.7-1,1.7c-0.3,0.7-0.7,1.4-1.2,2c-0.2,0-0.5-0.3-0.5-0.1
		c0,0.6-0.6,1.1-0.5,1.8c-0.4,0.9-0.9,1.8-1.5,2.6c-0.1-0.1-0.2-0.1-0.3-0.2c0.1,0.1,0.2,0.1,0.3,0.2c-0.3,0.7-0.7,1.3-1.1,1.9
		c-0.3,0.2-0.6,0.5-0.6,0.9c0,0.2-0.1,0.3-0.3,0.5c-0.3,0-0.4-0.3-0.6-0.4c-0.1,0.4,0.1,0.7,0.3,1c-0.1,0.4-0.4,0.8-0.7,1.2
		c-0.5,0.2-0.7-0.2-1-0.4c-0.4-0.1-0.8-0.2-1.2-0.2c-6.4,0-12.9,0-19.3,0c-0.3,0-0.6,0-1,0.1c0.2,0.2,0.5,0.1,0.8,0.1
		c6.3,0,12.7,0.1,19-0.1c0.4,0,0.8-0.1,1,0.4c0,0.4-0.3,0.6-0.5,0.9c-0.4,0.4-1,0.4-1.5,0.4c-6.2,0-12.4,0-18.5,0
		c-1.5,0-1.6-0.1-2.1-1.6c-0.1-0.5-0.3-0.9-0.9-0.4c-1.9,0.2-3.9,0-5.8,0.1c-0.8,0.1-0.8-0.5-0.9-1c0-0.4-0.3-0.7-0.5-1
		c-0.1-0.3,0-0.5,0.2-0.8c0.6,0,0.1-0.6,0.4-0.8c0.1-0.2,0.3-0.5,0.5-0.6c0-0.1,0.5,0,0.2-0.3c-0.1-0.1-0.1-0.3,0-0.4
		c0-0.1,0.2-0.1,0-0.2c-0.1,0,0.1,0,0,0.1c-0.2,0.4-0.4,0.8-0.6,1.1c-0.2,0.3-0.4,0.7-0.6,1c-3.6,6.4-7.3,12.6-11,18.9
		c-4.9,8.4-9.8,16.9-14.8,25.3c-0.2,0.3-0.3,0.7-0.8,0.9c-2.5,4.3-5.1,8.6-7.6,12.9c-2.6,4.4-5.2,8.9-7.9,13.6
		c-0.7-1.3-1.4-2.5-2-3.7c-0.3-0.5,0.1-0.9,0.4-1.3c5.7-9.9,11.4-19.7,17.1-29.5c1.5-2.6,3.1-5.2,4.6-7.9c0.4-0.1,0.3-0.5,0.4-0.7
		c2-3.5,4-7,6-10.6c0.9-1.7,1.9-3.3,2.8-5c0.6-1.2,1.5-2.3,2.3-3.5c0.4-0.6,0.7-1.3,1.1-2c1.4-2.5,2.8-5,4.2-7.5
		c0.1-0.7,0.4-1.3,1-1.7l0,0c0.1-0.6,0.5-1,0.9-1.5c1.5-2.6,3-5.2,4.6-7.8c0.8-1.3,1.6-2.7,2.4-4c0.6-0.1,1-0.3,1-1.1
		c0.1-0.8,0.8-1.4,0.9-2.2c0.1-0.4,0.3-0.7,0.5-0.9c0.5-0.2,0.5-0.8,0.7-1.2c0.7-1.4,1.5-2.8,2.4-4.1c0.6,0.2,0.3-0.2,0.2-0.4
		c0.1-0.5,0.4-0.9,0.7-1.2c0.3,0,0.2-0.3,0.2-0.4c0.4-0.9,0.8-1.7,1.4-2.5c0.5-0.3,0.7-0.8,0.8-1.4c0.2-0.5,0.5-1,0.8-1.5
		c0.3-0.2,0.7-0.6,0.7,0.2c0,0.4-0.3,0.7,0.1,1.3c0.1-1,0.1-1.7-0.2-2.5c0.3-0.8,0.7-1.6,1.4-2.2c0.3-0.2,0.6-0.1,0.9-0.1
		c0.4,0.2-0.2,0.5,0.1,0.8c1.2-1.7,1.9,0.5,2.9,0.4c-1-0.4-1.2-0.6-0.7-1.2c1.7,0.1,3.4-0.1,5.2,0.1c0.6,0.2,1.2,0.3,1.8,0
		c0.2,0,0.5,0,0.7,0.1c0.1,0.4,0,1,0.7,1.1c0.6,0.1,0.9-0.1,1.1-0.6c0.1-0.4,0.5-0.5,0.9-0.5c0.6,0,1.1-0.1,1.7-0.2
		c1.1,0.1,2.2-0.2,3.3,0.2c0.1,0.1,0.1,0.2,0.2,0.3c0,0.1,0,0.1-0.1,0.2c-0.2,0.2-0.4,0-0.5,0c0.2,0.1,0.3,0.2,0.5,0.3
		c0.3,0.4,0.8,0.2,1,0.2c-0.2,0-0.7,0.2-1-0.3c0-0.1,0-0.2,0.2-0.3c0.6-0.3,1.3-0.1,1.9-0.4c1.1-0.1,2.2-0.1,3.3,0
		c0.5,0.2,1,0.2,1.5,0c1.2-0.1,2.4-0.2,3.5,0.1c0.1,0.1,0.2,0.1,0.3,0.2c0.1,0.2,0.2,0.4,0.5,0.4c-0.1-0.1-0.3-0.3-0.1-0.5
		c0.7-0.5,1.4-0.1,2.1,0.1c0.7,0.7,1.5,0.7,2.4,0.5c1.1-0.2,2,0,2.7,0.9c0.3-0.7-1.3-0.6-0.5-1.5c0.8-0.2,1.6-0.3,2.4,0.2
		c0,0.2,0,0.3,0,0.5c-0.7,0.5-0.8,1.4-1.4,2c-0.3,0.1-0.5,0.3-0.3,0.6c-0.9,1.5-1.7,2.9-2.6,4.4c-0.2,0.2-0.8,0.1-0.4,0.7
		c-0.7,1.1-1.3,2.3-2,3.4c-0.3,0-0.4,0.1-0.2,0.4c-0.1,0.5-0.4,0.9-0.7,1.3c-0.4,0.1-0.4,0.4-0.3,0.6c-1.1,1.9-2.2,3.7-3.3,5.6
		c-0.3,0.1-1.1-0.5-0.7,0.5c0.1,0.3-0.1,0.5-0.1,0.8c0,0.1-0.1,0.1-0.2,0.1c-0.3,0.2-0.6,0-1,0.1c-0.8,0.1-0.7,0.8-0.8,1.3
		c0.1,0.1-0.4,0.3,0,0.4C294.8,40.7,295,40.9,295,41.2z"/>
	<path fill="#010101" d="M275.1,75.7c-2.2,3.9-4.4,7.8-6.6,11.6c-7.6,13.3-15.3,26.5-23,39.8c-3.3,5.7-6.7,11.5-10,17.2
		c-0.1,0.2-0.2,0.5-0.3,0.8c-0.1,0.8-0.5,1.4-1.1,1.9c-1.4,2.3-2.7,4.6-4.1,7c-0.1,0-0.2,0-0.2,0c-1.8-2.1-1.2-4.1,0-6.3
		c2.5-4.3,4.7-8.9,7-13.3c1.3-3.2,2.9-6.2,4.7-9.1c0.5-0.8,0.7-1.8,1.1-2.6c2.8-5.4,5.7-10.8,8.5-16.2c4.5-8.6,9-17.3,13.6-25.9
		c0.9-1.7,1.7-3.4,2.7-5c0.4-0.5,0.4-1.4,1.1-1.7c0.2,0.1,0.4,0.2,0.6,0.4c1.2,1,2.7,0.8,3.9,0.5C274.3,74.3,274.6,75,275.1,75.7z"
		/>
	<path fill="#010101" d="M284.9,56c0-0.3-0.1-0.5-0.4-0.4c-5.9,0.5-11.7,0.1-17.6,0.2c-1.2,0-2.5,0-3.7,0c0.1-0.7,0.5-1,1.2-1
		c7,0,14,0,21,0c0.5,0,0.9,0.1,0.8,0.7c0.1,0.5,0,1-0.4,1.3c-0.3,0.3-0.4,0.6-0.4,1.1c-0.5,0.9-1,1.9-1.6,2.7
		c-0.2-0.1-0.3-0.2-0.4-0.4c-0.1-0.2-0.3-0.2-0.4,0c-0.2,0.2-0.1,0.3,0.2,0.4c0.4,0.1,0.2,0.4,0.3,0.7c-0.5,0.9-0.9,1.8-1.6,2.7
		c-0.4,0.2-0.7-0.1-1-0.1c0.4,0.2,0.5,0.6,0.5,1c-0.4,0.6-0.6,1.4-1.1,1.9c-0.2,0.2-0.4,0.4-0.4,0.7c-0.3,0.7-0.6,1.3-1.1,1.9
		c-0.2-0.1-0.2-0.2-0.4-0.3c-0.3-0.1-0.5,0.1-0.5,0.4c0.1-0.2,0.2-0.5,0.6-0.3c0.3,0.4-0.2,0.7-0.1,1c-0.1,0.4-0.3,0.7-0.5,0.9
		c-0.4,0.2-0.9,0.3-1.4,0.3c-1.2,0.1-2.5,0-3.7,0c-0.6,0-1.1,0-1.5-0.5c-0.5-0.5,0.2-0.9,0.1-1.5c-0.5,0.2-0.5,0.6-0.7,0.9
		c-0.1,0.2-0.2,0.4-0.4,0.5c-0.3,0.2-0.5,0.5-0.6,0.8c-0.1,0.1-0.1,0.3-0.2,0.4c-0.2,0.4-0.5,0.6-0.7,1c-0.1,0.2-0.2,0.4-0.5,0.4
		c-0.3,0-0.6-0.7-0.9,0c-1.5-0.3-2.9-0.2-4.4-0.2c-0.5,0-1.1,0.1-1.2-0.5c-0.2-0.6-0.2-1.2,0.4-1.6c0.4,0.5,0.9,0.6,1.7,0.5
		c0.9-0.2,1.9,0,2.8-0.1c-1-0.4-1.9-0.2-2.9-0.1c-0.5,0.1-0.9,0.1-1.4-0.2c-0.4-0.3-0.1-0.7-0.2-1.1c0-0.4,0.1-0.8,0.6-0.9
		c0.3,0,0.4,0.1,0.6,0.3c0-0.4-0.5-0.4-0.6-0.7c0-0.5,0.3-0.8,0.7-1.1c0.7-0.3,1.2-0.7,1-1.6c0-0.1,0-0.2,0-0.3
		c0.1-0.2,0.2-0.5,0.3-0.7c0.2-0.3,0.3-0.5,0.5-0.8c0.1-0.1,0.2-0.1,0.3-0.2c0.3-0.2,0.8-0.3,0.6-0.8c-0.4,0-0.4,0.3-0.6,0.5
		c-0.1,0.2-0.3,0.4-0.4,0.6c-0.2,0.2-0.3,0.5-0.5,0.7c-0.1,0.2-0.2,0.4-0.3,0.5c-0.1,0.2-0.1,0.4-0.3,0.6
		c-4.6,7.9-9.2,15.7-13.8,23.6c-4.7,8.1-9.5,16.1-14.2,24.2c-0.2,0.4-0.4,0.8-0.9,1c-3.5,5.9-6.9,11.8-10.4,17.7
		c-1.1,2-2.3,3.9-3.5,6c-0.5-0.8-0.9-1.5-1.3-2.1c-0.4-0.7-0.4-1.3,0-2c4.1-7.8,8.2-15.5,12.2-23.3c1-1.9,2-3.8,2.9-5.7
		c-0.1-0.4,0.1-0.7,0.3-1c3-5.9,6.1-11.8,9.2-17.6c4.3-8.1,8.4-16.1,12.7-24.2c0.7-1,1.1-2.2,1.8-3.3c0.1-0.1,0.2-0.1,0.3-0.2
		c0.5-0.1,0.7-0.4,0.5-0.9c0-0.4,0.3-0.8,0.4-1.2c0.1-0.3,0.3-0.5,0.6-0.6c1.2-0.1,1.2-0.2,0.8-1.6c0-0.1,0-0.1,0-0.2
		c0-0.3-0.3-0.6-0.2-1c0.8,0.4,1.4,0.9,1.4,1.9c0,0.5,0.3,0.8,0.9,0.8c6.7,0,13.4,0,20.1,0c0.2,0,0.3-0.1,0.5-0.2
		C284.7,56.4,284.9,56.3,284.9,56z"/>
	<path fill="#010101" d="M255.2,53.9c0.3,0.3,0.2,0.7,0.2,1c2.1,0,4.2-0.3,6.3,0.2c0,0,0,0,0,0c0.1,0.6-0.1,1-0.8,0.9
		c-0.2,0-0.3,0-0.2,0.2c0,0.1,0.1,0.1,0.1,0.2c0,0.4-0.3,0.7-0.5,1c-0.1,0.1-0.2,0.1-0.3,0.1c-0.6-0.1-0.6,0.3-0.7,0.7
		c-0.2,0.3-0.2,0.9-0.8,0.9c-0.2-0.3,0-0.6-0.2-0.9c0.1,0.3,0.1,0.6,0.2,0.9c0.1,0.1,0.3,0.2,0.4,0.3c-0.2,1.3-1,2.1-1.6,3.2
		c-4,7-8.2,14-12.3,21c-4.1,7-8.2,13.9-12.2,20.9c-0.2,0.4-0.6,0.8-0.9,1.1c-3,5.1-6,10.2-9,15.3c-2,3.4-4,6.9-6.1,10.4
		c-0.7-0.8-1.1-1.6-1.5-2.5c-0.3-0.6,0-1.2,0.3-1.8c4.8-9.1,9.5-18.1,14.3-27.2c0.1-0.2,0.2-0.5,0.3-0.8c0.4-1.8,1.5-3.3,2.3-4.8
		c1.4-2.6,2.7-5.2,4-7.7c4.5-8.7,9.1-17.3,13.6-26c0.8-1.5,1.5-2.9,2.3-4.3c0.3-0.5,0.5-1.1,1-1.5c0.3-0.2,0.5-0.6,0.8-0.8
		C254.6,53.5,254.9,53.4,255.2,53.9z"/>
	<path fill="#010101" d="M262.1,71.4c-0.6,0.3-0.4,1-0.3,1.4c0.1,0.4,0.7,0.2,1,0.2c1.2,0.1,2.4,0,3.5,0.1c0.4,0,0.7,0.3,1,0.4
		c0.3-0.1,0.4,0.1,0.6,0.3c0.1,0.5-0.2,0.9-0.4,1.3c-0.9,1.6-1.8,3.3-2.8,4.9c-4.9,8.4-9.8,16.8-14.7,25.1
		c-4.8,8.2-9.6,16.4-14.4,24.6c-0.3,0.4-0.5,0.9-1,1.2c-2.3,3.8-4.5,7.7-6.8,11.5c-0.8,1.3-1.6,2.7-2.4,4c-0.3-0.3-0.5-0.6-0.7-0.9
		c-0.4-0.4-0.9-0.8-0.9-1.5l0,0c-0.4-0.6-0.5-1.2,0.2-1.6c4.2-8.1,8.5-16.1,12.7-24.2c0.1-0.2,0.2-0.5,0.3-0.8
		c-0.1-0.3,0.1-0.6,0.2-0.9c3.1-6.1,6.3-12.1,9.5-18.2c4.7-9.1,9.5-18.1,14.3-27.2c0.2-0.4,0.3-0.9,0.9-0.9
		C262.6,70.7,262.1,71.1,262.1,71.4z"/>
	<path d="M259.9,33.9c0.8,0.5-0.2,0.8-0.2,1.2c0,0.7-0.6,1.1-0.5,1.9c0.1,0.6-0.7,0.4-1.2,0.3C258.6,36.1,259.2,35,259.9,33.9z"/>
	<path d="M268.4,19.3c0.3,0,0.6,0.3,0.6,0.5c-0.3,0.8,0.1,1.3,0.4,2c-1.4,0.1-1.4,0.1-1.1-1.2c0.2-0.6-0.2-0.3-0.4-0.3
		C267.9,19.9,268.1,19.6,268.4,19.3z"/>
	<path d="M267,21.7c0.2,0.1,0.4,0.2,0.8,0.3c-0.6,0.2-1.2,0.4-0.9,1.2c0.1,0.2,0.1,0.5-0.2,0.6c-0.4,0-0.3-0.4-0.4-0.6
		C266.3,22.6,266.6,22.1,267,21.7z"/>
	<path d="M263.8,27.2c0.5,0,0.7,0.6,0.5,0.8c-0.3,0.3-0.6-0.1-0.8-0.4C263.6,27.5,263.6,27.3,263.8,27.2z"/>
	<path d="M261.2,31.8c0,0.5,0.2,1.2-0.7,1.2C260.6,32.5,260.9,32.1,261.2,31.8z"/>
	<path fill="#ACACAC" d="M169.3,23.8c-0.6,0.1-1.2,0.1-1.8-0.1c0.6-0.2,1.2-0.1,1.8-0.1C169.3,23.7,169.3,23.8,169.3,23.8z"/>
	<path fill="#0B0B0B" d="M232.9,80.8c0.2,0.4,0.5,0.9-0.4,0.7C232.6,81.2,232.7,81,232.9,80.8z"/>
	<path d="M264.8,25.5c0.2,0.2,0.2,0.6,0.1,0.8c-0.1,0.1-0.3-0.2-0.3-0.3C264.5,25.8,264.6,25.6,264.8,25.5z"/>
	<path fill="#010101" d="M275.1,75.7c-0.3-0.4-1-0.1-1-0.8c0-0.2-0.1-0.3-0.3-0.2c-1.2,0.7-2.5,0.1-3.8,0.3
		c-0.5,0.1-0.8-0.5-1.2-0.7c0.6-0.7,1.4-1.3,1.7-2.3c1.2-0.4,2.5-0.2,3.8-0.2c0.8,0,1.5,0,2.2-0.2c0.3,0,0.5,0.1,0.7,0.3
		c-0.4,0.9-0.9,1.8-1.5,2.6c0,0-0.1-0.1-0.1-0.1c-0.2-0.2-0.5-0.3-0.7-0.5c-1.3-0.9-2.7-0.4-4.1-0.3c1.4,0.3,2.8-0.1,4.1,0.4
		c0.1,0.1,0.2,0.2,0.3,0.4c0,0.2,0,0.5,0.1,0.7C275.4,75.3,275.4,75.5,275.1,75.7z"/>
	<path fill="#060606" d="M294.3,40.2c0-0.8-0.1-1.5,1-1.7c0,0.1,0.1,0.4,0.2,0.3c0.4-0.1,0.6,0.1,0.7,0.4c-0.2,0.6-0.5,1-0.9,1.5
		C294.9,40.7,294.6,40.5,294.3,40.2z"/>
	<path d="M293.1,44.5c-0.3-0.3-1-0.5-0.5-1c0.3-0.4,0.6-1.3,1.4-0.6C293.8,43.4,293.5,44,293.1,44.5z"/>
	<path d="M291,48.1c-0.7-0.8,0.6-1.4,0.1-2.1c0.5-0.1,0.6,0.2,0.8,0.5C291.7,47.1,291.4,47.6,291,48.1z"/>
	<path d="M283.4,61.3c-0.1-0.2-0.2-0.5-0.2-0.5c-0.6,0.2-0.7-0.4-0.7-0.6c0.1-0.3,0.4-0.5,0.9-0.5c0.7,0,0,0.5,0.3,0.7
		c0.1,0,0.1,0.1,0.1,0.2C283.7,60.9,283.6,61.1,283.4,61.3z"/>
	<path d="M285.4,57.9c-0.7-0.4,0.2-0.8,0-1.1c0.6-0.2,0.5-0.8,0.8-1.3c0.2,0.1,0.3,0.1,0.5,0.2C286.2,56.5,285.8,57.2,285.4,57.9z"
		/>
	<path d="M296.5,38c-0.2-0.2-0.4-0.5-0.7-0.9c0.6,0,1.1-0.5,1.4,0.2c-0.1,0.2-0.2,0.4-0.3,0.6C296.7,38.2,296.6,38.2,296.5,38z"/>
	<path d="M281.3,64.9c-0.4-0.2-0.1-1.1-1.1-0.8c0.7-0.7,1.2-0.5,1.6-0.1C281.8,64.3,281.6,64.6,281.3,64.9z"/>
	<path d="M287.3,54.6c-1.4-0.3-0.3-1-0.2-1.5c0.1,0.4,0.2,0.7,0.5,1C287.5,54.3,287.4,54.4,287.3,54.6z"/>
	<path d="M296.2,39.2c-0.8-0.6-1.1,0.1-1.4,0.9c-0.4-0.9,0.4-1.1,0.5-1.6c0.4,0,0.7,0.1,1,0.3C296.3,38.9,296.2,39.1,296.2,39.2z"/>
	<path d="M303.8,26.1c-0.2,0-0.5,0-0.8,0c0.3-0.5,0.5-1,1.2-0.7C304.1,25.6,304,25.9,303.8,26.1z"/>
	<path d="M294.3,40.2c0.4,0,0.8,0.2,1,0.5c0,0.2-0.1,0.3-0.2,0.4C294.8,40.8,294,40.9,294.3,40.2z"/>
	<path d="M277.3,71.9c-0.2-0.1-0.3-0.2-0.5-0.3c-0.1-0.2-0.1-0.3,0-0.5c0.3-0.1,0.6-0.2,1,0C277.7,71.4,277.5,71.7,277.3,71.9z"/>
	<path d="M300.5,31.8c-0.2-0.2-0.4-0.5-0.2-0.8c0.2-0.2,0.4-0.1,0.5,0.1C300.7,31.4,300.6,31.6,300.5,31.8z"/>
	<path fill="#010101" d="M275.4,75c-0.3-0.1-0.7-0.1-0.3-0.5c0.2-0.3,0.4-0.4,0.7-0.1l0,0.1C275.8,74.7,275.7,74.9,275.4,75z"/>
	<path d="M306.7,21c-0.3-0.1-0.5-0.2-0.3-0.5c0.1-0.2,0.3-0.6,0.6-0.2C306.9,20.6,306.8,20.8,306.7,21z"/>
	<path d="M287.8,53.6c-0.4-0.7,0.2-0.7,0.6-0.9C288.3,53.1,288.1,53.4,287.8,53.6z"/>
	<path d="M301.6,29.9c-0.2,0-0.4,0.2-0.4-0.1c0-0.2,0.2-0.8,0.7-0.3C301.7,29.6,301.6,29.7,301.6,29.9z"/>
	<path d="M278.5,69.2c0.1,0.1,0.2,0.1,0.2,0.2c0,0.3-0.2,0.6-0.4,0.8C277.9,69.8,278.4,69.6,278.5,69.2L278.5,69.2z"/>
	<path d="M279.8,67.5c-0.7-0.7,0.2-0.5,0.4-0.7C280.1,67.1,280,67.3,279.8,67.5z"/>
	<path fill="#060606" d="M296.5,38c0.1,0,0.3,0,0.4,0c-0.1,0.3-0.2,0.5-0.4,0.7C296.3,38.5,296.4,38.2,296.5,38z"/>
	<path fill="#3F3F3F" d="M159,46.2c0,0.4,0.4,0.2,0.5,0.4c-1.1,0-2.3,0-3.5,0C157,45.9,158,46.4,159,46.2z"/>
	<path fill="#0A0A0A" d="M114.9,32.6c-0.2-0.4,0-0.6,0.2-0.9c0.1,0,0.2,0,0.2,0.1C115.5,32.3,115.3,32.5,114.9,32.6z"/>
	<path d="M276.7,44.8c0.3-0.2,0.3-0.3,0.4-0.3c0.7-0.3,1.4-0.2,1.4-1.7c-0.1-1.4-0.7-0.8-1.2-0.9c-0.4-0.1-0.5,0.1-0.6,0.6
		c0,1-0.7,0.7-1.1,0.3c-1-1.1-2.4-1.2-3.7-1.6c-0.4-0.1-1.4,0.1-0.5-0.8c0.3-0.3,0.1-0.5-0.1-0.7c-0.3-0.4-0.6-0.8-0.8-1.1
		c-0.7,0.6-3.1,1.1-4,0.7c-0.1-0.1-0.3-0.2-0.3-0.3c0.3-2.1-0.4-4.2-0.2-6.3c0.1-0.7-0.4-1.5,0.5-2c0.1,0,0.1-0.2,0.1-0.2
		c-1.1-0.8,0.2-1.9-0.4-2.7c-0.1-0.2,0-0.4,0.2-0.5c0.2-0.1,0.4-0.2,0.5-0.3c0.8-2.8,3.3-3.4,5.6-4.4c0.4-0.2,1,0,1.1-0.8
		c0-0.3,4-0.3,4,0c0.1,0.8,0.6,0.6,1.1,0.6c0.8,0,1.6,0,2.4,0c1.5,0,2.4,0.9,3.3,2c0.9,1.1,0.7,2.2,0.8,3.3c0.1,0.8,0.2,1.5,1.2,1.4
		c0.2,0,0.6,0.1,0.5,0.3c-0.4,1.5,0.4,2.9,0.1,4.4c0,0,0,0.1,0,0.1c0,1.6,0,1.6-1.8,1.6c-0.3,0-0.6,0-1,0c-0.3,0-0.6,0.1-0.5,0.3
		c0.3,0.7,0.2,1.6,1,2c0.6,0.4,1.2,0.9,2.1,0.8c0.4,0,0.3,0.5,0.4,0.6c0.6,0.6,1.2,1.2,2.2,1.1c0.2,0,0.6,0.1,0.6,0.4
		c0,0.4-0.4,0.5-0.6,0.5c-1.9,0-1.9,1.7-2.5,2.8c-0.2,0.3-0.2,0.7-0.6,0.9c-0.5,0.4-1.3,0.7-1,1.7c-1.2,0.3-1.1,1.8-2.1,2.3
		c-0.4,0.2-1.1,0.5-0.8,1.3c0.1,0.3-0.2,0.4-0.5,0.4c-0.3,0-0.5-0.1-0.4-0.4c0.1-0.6-0.3-0.8-0.6-1c-0.4-0.3-0.8-0.5-0.5-1.1
		c0-0.1-0.1-0.4-0.1-0.4C279,47,278.7,45,276.7,44.8z"/>
	<path d="M301.5,17.9c1.4,0,2.9,0,4.3,0c1.2,0.7,1.5,1.2,0.8,1.8c-0.3,0.3-0.5,0.3-0.6-0.1c-0.3-1.2-0.8-1.4-2.1-1.2
		C303.1,18.6,302.1,19.1,301.5,17.9z"/>
	<path d="M280.6,17.4c1.4,0,2.7,0,4.1,0c-0.4,0.3-0.9,0.2-1.4,0.2c-0.4,0-0.8,0-0.7,0.6c0.1,0.5-0.4,0.5-0.7,0.6
		c-0.6,0.1-1.1-0.1-1.5-0.5C280,17.9,280.6,17.7,280.6,17.4z"/>
	<path d="M270.8,17.2c0.6,0,1.1-0.1,1.7-0.1c0.1,0,0.2,0.1,0.2,0.1c0.3,0.8,1,1,1.7,1c-0.9,0.2-1.6,0.2-2.2-0.6
		c-0.2-0.2-0.2-0.2-1.1,0.3c-0.2,0.1-0.4,0.5-0.7,0C269.9,17.2,270.7,17.5,270.8,17.2z"/>
	<path d="M258.5,47.3c-0.4,0-0.7,0-0.6-0.5c0-0.3,0-0.8,0.4-0.6c0.5,0.2,0.8,0.7,1.3,0.6C259.4,47.4,258.8,47,258.5,47.3z"/>
	<path d="M275.1,18c0.1-0.5,0.5-0.6,0.9-0.6c0.4,0,0.8,0,0.8,0.4c0,0.5-0.5,0.3-0.7,0.3C275.7,18.1,275.4,18.2,275.1,18z"/>
	<path d="M288.3,18.1c0.6,0,1.3,0,2,0C289.4,18.8,288.6,18.8,288.3,18.1L288.3,18.1z"/>
	<path d="M298.3,17.9c-0.9,0.6-1.5,0.3-2.1,0.3C296.7,17.7,297.3,17.9,298.3,17.9z"/>
	<path d="M253.6,54.8c0.3-0.5,0.6-1.1,0.9-1.6c0.4,0,0.6,0.3,0.7,0.7c-0.4-0.3-0.7,0-0.9,0.3C254.1,54.5,254,54.8,253.6,54.8z"/>
	<path d="M278.5,17.3c0.5-0.1,1-0.1,1.5,0C279.4,17.7,278.9,18.2,278.5,17.3z"/>
	<path d="M256.6,48.8c0-0.6,0.3-1.1,0.8-1.6c0.3,0.4-0.1,0.6-0.1,0.8C257.2,48.4,257,48.7,256.6,48.8z"/>
	<path d="M304.8,23.5c-0.1,0.2-0.2,0.3-0.4,0.3c-0.2,0-0.4-0.2-0.4-0.4c0-0.2,0.3-0.1,0.5-0.2C304.6,23.2,304.8,23.2,304.8,23.5z"/>
	<path d="M301.1,28.9c-0.2,0.5-0.3,0.9-0.5,1.5C300.6,29.7,300.4,29.2,301.1,28.9z"/>
	<path d="M289.5,50.7c-0.2,0-0.4-0.1-0.5-0.3c-0.1-0.2-0.4-0.4,0-0.6c0.3-0.1,0.4,0.1,0.4,0.4C289.4,50.5,289.5,50.6,289.5,50.7
		C289.5,50.7,289.5,50.7,289.5,50.7z"/>
	<path d="M256.6,48.8c0.2-0.3,0.5-0.5,0.7-0.8c0.1,0.4-0.1,0.8-0.4,1C256.6,49.3,256.7,48.9,256.6,48.8z"/>
	<path d="M288.3,17.6c0.6-0.1,1.3-0.1,1.9,0c-0.6,0.5-1.3,0.1-1.9,0.3c0,0,0,0,0,0C288.3,17.8,288.3,17.7,288.3,17.6z"/>
	<path d="M255.6,51.2c0.1-0.2,0.2-0.3,0.2-0.5c0.2,0.1,0.6-0.1,0.7,0.3C256.2,51.1,255.9,51.2,255.6,51.2z"/>
	<path d="M255.9,50.3c-0.1-0.1-0.2-0.2-0.3-0.3c0.1-0.3,0.2-0.6,0.6-0.7C256.4,49.8,256.2,50,255.9,50.3z"/>
	<path d="M284.9,56c0.2,0.1,0.2,0.3,0.1,0.5c-0.2,0.3-0.4,0.1-0.6,0C284.5,56.2,284.6,56,284.9,56z"/>
	<path d="M272.1,18.6c-0.3-0.1-0.6-0.2-1-0.4c0.5-0.2,0.8-0.1,1.1,0.2C272.2,18.4,272.2,18.5,272.1,18.6z"/>
	<path d="M301.8,27.7c-0.1-0.2-0.2-0.3-0.1-0.3c0.1-0.1,0.2-0.2,0.4-0.2c0.1,0,0.2,0.1,0.1,0.2C302,27.5,301.9,27.6,301.8,27.7z"/>
	<path d="M288.3,18.1c-0.3-0.1-0.6-0.2-1-0.3c0.4-0.3,0.7,0,1,0.1c0,0,0,0,0,0C288.3,17.9,288.3,18,288.3,18.1
		C288.3,18.1,288.3,18.1,288.3,18.1z"/>
	<path d="M298.9,17.8c0.1,0,0.3,0,0.4,0c0.1,0.1,0.6,0.2,0.3,0.4C299.3,18.5,299,18.1,298.9,17.8z"/>
	<path d="M284.8,17.9c0.1,0.1,0.3,0.1,0.3,0.2c0.1,0.2-0.1,0.3-0.3,0.2c-0.1,0-0.2-0.1-0.2-0.2C284.6,18,284.7,18,284.8,17.9z"/>
	<path fill="#0A0A0A" d="M256.5,47.4c0,0.2-0.1,0.4-0.3,0.3c-0.1,0-0.2-0.2-0.2-0.3c0-0.1,0.1-0.3,0.2-0.4
		C256.4,47.2,256.4,47.3,256.5,47.4z"/>
	<path fill="#0B0B0B" d="M234.2,80.5c-0.1,0.1-0.1,0.4-0.3,0.2c-0.1-0.1-0.1-0.3-0.1-0.4c0-0.1,0.2-0.2,0.2-0.2
		C234.1,80.2,234.2,80.3,234.2,80.5z"/>
	<path d="M260.5,34.5c0-0.2,0-0.3,0-0.5c0-0.1,0.1-0.2,0.2-0.1c0.1,0.1,0.1,0.3,0.1,0.4C260.8,34.4,260.6,34.5,260.5,34.5z"/>
	<path d="M293.8,17.7c0.4,0,0.8,0,1.2,0C294.6,18,294.2,18,293.8,17.7z"/>
	<path d="M270.5,72.1c0.2,1.3-0.7,1.8-1.7,2.2c-0.2-0.1-0.2-0.3-0.2-0.5c-0.2-0.1-0.1-0.3-0.1-0.4c0.1-0.5,0.7-0.7,0.6-1.2
		c0.1-0.1,0.2-0.2,0.2-0.3c0.1-0.2,0.3-0.4,0.5-0.4C270.3,71.5,270.6,71.6,270.5,72.1z"/>
	<path fill="#090909" d="M237.8,134.6c-0.1-0.1-0.2-0.2-0.2-0.4c-0.1-0.2,0.1-0.3,0.2-0.3c0.1,0,0.2,0.2,0.3,0.3
		C238.1,134.4,238,134.5,237.8,134.6z"/>
	<path fill="#010101" d="M261.2,57.9c0-0.2,0.1-0.4,0.3-0.4c7.2,0.3,14.4,0.1,21.6,0.2c0.6,0,1.3-0.1,1.4,1c-7.7,0-15.4,0-23.1,0
		C261.8,58.3,260.9,58.3,261.2,57.9z"/>
	<path fill="#010101" d="M270.5,72.1c-0.1-0.3-0.4-0.5-0.7-0.5c-0.2-0.3,0-0.5,0.2-0.7c0.1-0.2,0.2-0.4,0.3-0.5
		c0.3-0.1,0.5,0,0.7,0.2c0.5,0.4,1,0.5,1.6,0.5c1.4,0,2.7,0,4.1,0c0,0.2,0,0.3,0,0.5c-0.1,0.2-0.3,0.4-0.5,0.4
		C274.4,72.1,272.5,72.1,270.5,72.1z"/>
	<path fill="#010101" d="M264.8,72.1c-0.6,0.3-1.5-0.6-2,0.5c-0.1,0.1-0.3,0-0.4-0.1c-0.2-0.3-0.4-0.6-0.3-1c0-0.2,0.2-0.2,0.3-0.2
		c1.1,0.2,2.2-0.2,3.3-0.1c0.4,0,0.7,0,1,0.2c0.2,0.1,0.3,0.2,0.3,0.5c0,0.2-0.2,0.3-0.4,0.3C266.1,72.1,265.5,72.1,264.8,72.1z"/>
	<path fill="#010101" d="M260.7,56.5c-0.1-0.3-0.7-0.2-0.5-0.6c0-0.1,0.3-0.7,0.8-0.1c0.4,0.4,0.4-0.4,0.6-0.6
		c0.9,0.4,0.6,1.2,0.4,1.8c-0.2,0.6-0.8,0.1-1.2,0.1C260.7,56.8,260.7,56.7,260.7,56.5z"/>
	<path d="M271,70.7c-0.2-0.1-0.5-0.2-0.7-0.2c0-0.1,0.1-0.1,0.1-0.2c0.2-0.5,0.3-1.1,1-1.2c0.2,0,0.3,0.1,0.3,0.3
		C271.8,69.9,271.4,70.3,271,70.7z"/>
	<path d="M263.3,68c0.2-0.4,0.3-0.8,0.5-1.2c0.2-0.3,0.1-0.7,0.5-0.8C264.7,67.2,264.5,67.6,263.3,68z"/>
	<path d="M265.9,63.2c0.7,0.7,0.5,1.1-0.8,1.4c-0.1-0.2-0.1-0.3,0-0.5C265.4,63.8,265.5,63.3,265.9,63.2z"/>
	<path d="M259.4,60.4c0.7-0.2,1.1-0.7,1.3-1.6C260.9,60.1,260.6,60.4,259.4,60.4z"/>
	<path d="M262.6,69.4c0-0.2,0-0.3,0.1-0.5c0.5,0.3,1.4,0.5,0.4,1.3C262.9,70,262.9,69.6,262.6,69.4z"/>
	<path d="M260,58.7c0.6,0.3,0.1,0.7,0,0.9c-0.1,0.2-0.3,0.3-0.5,0c-0.3-0.4-0.1-0.7,0.2-1C259.8,58.6,259.9,58.6,260,58.7z"/>
	<path d="M278.5,69.2c-0.6,0-0.6,0.9-1.5,0.7C277.5,69.6,277.6,68.8,278.5,69.2L278.5,69.2z"/>
	<path d="M268.1,73.5c-0.1,0.1-0.1,0.2-0.2,0.3c-0.2-0.1-0.4-0.2-0.6-0.3c0.1-0.3-0.3-0.7,0.1-1.1C267.7,72.9,267.8,73.3,268.1,73.5
		z"/>
	<path d="M261.2,57.9c0.1,0.2,0.5,0.4,0.2,0.7C261.2,58.5,260.8,58.4,261.2,57.9z"/>
	<path fill="#010101" d="M256.5,56.8c-0.8,0-1.6,0-2.4,0c-0.3,0-0.5,0.1-0.5-0.3c0-0.3-0.1-0.7,0.4-0.7c1.7,0,3.3,0,5,0
		c0.3,0,0.5,0.3,0.5,0.6c0,0.5-0.4,0.3-0.6,0.3C258.1,56.8,257.3,56.7,256.5,56.8C256.5,56.8,256.5,56.8,256.5,56.8z"/>
	<path fill="#010101" d="M259.5,58.4c-0.1,0.1-0.2,0.2-0.3,0.3c-0.2-0.2-0.1-0.3,0-0.5c-0.2-0.3-0.3-0.6,0.1-0.9
		c0.3-0.3,0.5,0,0.6,0.2C259.8,57.8,259.7,58.1,259.5,58.4z"/>
	<path d="M258.5,59.1c-0.2-0.5-1.3-1,0-1.5C258.5,58.2,258.5,58.7,258.5,59.1L258.5,59.1z"/>
	<path d="M253.4,58.5c-0.2,0-0.4-0.2-0.3-0.3c0-0.1,0.1-0.3,0.2-0.3c0.2-0.1,0.3,0.1,0.3,0.3C253.6,58.3,253.5,58.4,253.4,58.5z"/>
	<path fill="#010101" d="M275.1,74c-1.6,0-3.2,0-4.7,0c0.6-1,0.6-1,1.8-1c0.6,0,1.3,0,1.9,0C274.7,73.1,275,73.4,275.1,74L275.1,74z
		"/>
	<path d="M275.8,74.4c-0.2-0.1-0.5-0.1-0.7,0.1c0-0.2,0-0.3,0-0.5c0,0,0,0,0,0C275.4,74.1,276,73.6,275.8,74.4z"/>
	<path fill="#010101" d="M147.3,158.1c-3.8,0-7.7-0.1-11.5-0.1c-15.3-0.1-30.5-0.2-45.8-0.2c-10.4-0.1-20.8-0.1-31.2-0.2
		c-0.3,0-0.7,0-1.3,0c0.6-1,1.1-1.9,1.6-2.7c0.3-0.5,0.9-0.4,1.4-0.5c5.9-0.2,11.8-0.5,17.7-0.7c11.6-0.5,23.2-0.9,34.7-1.4
		c12.7-0.5,25.3-1,38-1.5c0.8,0,1.6-0.1,2.4-0.4c-2.3,0-4.7,0-7,0c-11.3,0-22.6,0.3-34-0.1c-16.5-0.5-32.9-0.1-49.4-0.2
		c-1.1,0-0.9-0.3-0.6-1c0.7-1.6,1.8-2.2,3.6-2.3c14.8-0.5,29.6-1.1,44.3-1.7c14.8-0.6,29.5-1.2,44.3-1.8c0.7,0,1.3-0.1,2-0.3
		c-30-0.2-60.1-0.3-90.2-0.5c0.6-2.4,1.4-3.1,3.6-3.2c10.3-0.4,20.6-0.9,30.9-1.3c13.9-0.6,27.7-1.1,41.6-1.7
		c4.8-0.2,9.6-0.4,14.4-0.6c0.2-0.2,0.4-0.2,0.7-0.2c0.7,0,1.5-0.1,2.2,0c-0.9-0.2-2,0.1-3-0.1c-6.3,0-12.7,0-19,0
		c-0.4,0-0.9,0.1-1.3-0.1c-3.6,0-7.3-0.1-10.9-0.1c-6.4,0-12.7,0-19.1-0.1c-10.6-0.1-21.3-0.1-31.9-0.2c-1.3,0-2.5,0-4.1,0
		c0.8-1.3,1.4-2.4,2.1-3.5c0.2-0.4,0.7-0.4,1.1-0.5c0.4-0.1,0.9,0,1.3,0c38.2,0,76.3,0,114.5,0c1.9,0,3,0.6,3.9,2.3
		c5.6,10.4,11.3,20.7,16.9,31c0.1,0.2,0.2,0.3,0.3,0.5c-0.1,0.1,0.1,0.3-0.1,0.2c-0.3,0-0.6,0-1,0c-52.1,0-104.2,0-156.4,0
		c0.8-2.4,2.5-3.1,5-3.2c11.7-0.3,23.4-0.9,35.1-1.4c16.8-0.7,33.7-1.4,50.5-2c1.2,0,2.3-0.1,3.5-0.2c0.6-0.2,1.2,0,1.7-0.1
		C148.6,158.1,147.9,158.3,147.3,158.1z"/>
	<path fill="#010101" d="M21.6,140.8c0.3-0.6,0.7-1.1,1-1.7c0.9-0.2,1.4-0.7,1-1.7c0.3-0.7,0.7-1.4,1.2-2c0.2,0,0.5,0.3,0.5,0.1
		c0-0.6,0.6-1.1,0.5-1.8c0.4-0.9,0.9-1.8,1.5-2.6c0.1,0.1,0.2,0.1,0.3,0.2c-0.1-0.1-0.2-0.1-0.3-0.2c0.3-0.7,0.7-1.3,1.1-1.9
		c0.3-0.2,0.6-0.5,0.6-0.9c0-0.2,0.1-0.3,0.3-0.5c0.3,0,0.4,0.3,0.6,0.4c0.1-0.4-0.1-0.7-0.3-1c0.1-0.4,0.4-0.8,0.7-1.2
		c0.5-0.2,0.7,0.2,1,0.4c0.4,0.1,0.8,0.2,1.2,0.2c6.4,0,12.9,0,19.3,0c0.3,0,0.6,0,1-0.1c-0.2-0.2-0.5-0.1-0.8-0.1
		c-6.3,0-12.7-0.1-19,0.1c-0.4,0-0.8,0.1-1-0.4c0-0.4,0.3-0.6,0.5-0.9c0.4-0.4,1-0.4,1.5-0.4c6.2,0,12.4,0,18.5,0
		c1.5,0,1.6,0.1,2.1,1.6c0.1,0.5,0.3,0.9,0.9,0.4c1.9-0.2,3.9,0,5.8-0.1c0.8-0.1,0.8,0.5,0.9,1c0,0.4,0.3,0.7,0.5,1
		c0.1,0.3,0,0.5-0.2,0.8c-0.6,0-0.1,0.6-0.4,0.8c-0.1,0.2-0.3,0.5-0.5,0.6c0,0.1-0.5,0-0.2,0.3c0.1,0.1,0.1,0.3,0,0.4
		c0,0.1-0.2,0.1,0,0.2c0.1,0-0.1,0,0-0.1c0.2-0.4,0.4-0.8,0.6-1.1c0.2-0.3,0.4-0.7,0.6-1c3.6-6.4,7.3-12.6,11-18.9
		c4.9-8.4,9.8-16.9,14.8-25.3c0.2-0.3,0.3-0.7,0.8-0.9c2.5-4.3,5.1-8.6,7.6-12.9c2.6-4.4,5.2-8.9,7.9-13.6c0.7,1.3,1.4,2.5,2,3.7
		c0.3,0.5-0.1,0.9-0.4,1.3c-5.7,9.9-11.4,19.7-17.1,29.5c-1.5,2.6-3.1,5.2-4.6,7.9c-0.4,0.1-0.3,0.5-0.4,0.7c-2,3.5-4,7-6,10.6
		c-0.9,1.7-1.9,3.3-2.8,5c-0.6,1.2-1.5,2.3-2.3,3.5c-0.4,0.6-0.7,1.3-1.1,2c-1.4,2.5-2.8,5-4.2,7.5c-0.1,0.7-0.4,1.3-1,1.7l0,0
		c-0.1,0.6-0.5,1-0.9,1.5c-1.5,2.6-3,5.2-4.6,7.8c-0.8,1.3-1.6,2.7-2.4,4c-0.6,0.1-1,0.3-1,1.1c-0.1,0.8-0.8,1.4-0.9,2.2
		c-0.1,0.4-0.3,0.7-0.5,0.9c-0.5,0.2-0.5,0.8-0.7,1.2c-0.7,1.4-1.5,2.8-2.4,4.1c-0.6-0.2-0.3,0.2-0.2,0.4c-0.1,0.5-0.4,0.9-0.7,1.2
		c-0.3,0-0.2,0.3-0.2,0.4c-0.4,0.9-0.8,1.7-1.4,2.5c-0.5,0.3-0.7,0.8-0.8,1.4c-0.2,0.5-0.5,1-0.8,1.5c-0.3,0.2-0.7,0.6-0.7-0.2
		c0-0.4,0.3-0.7-0.1-1.3c-0.1,1-0.1,1.7,0.2,2.5c-0.3,0.8-0.7,1.6-1.4,2.2c-0.3,0.2-0.6,0.1-0.9,0.1c-0.4-0.2,0.2-0.5-0.1-0.8
		c-1.2,1.7-1.9-0.5-2.9-0.4c1,0.4,1.2,0.6,0.7,1.2c-1.7-0.1-3.4,0.1-5.2-0.1c-0.6-0.2-1.2-0.3-1.8,0c-0.2,0-0.5,0-0.7-0.1
		c-0.1-0.4,0-1-0.7-1.1c-0.6-0.1-0.9,0.1-1.1,0.6c-0.1,0.4-0.5,0.5-0.9,0.5c-0.6,0-1.1,0.1-1.7,0.2c-1.1-0.1-2.2,0.2-3.3-0.2
		c-0.1-0.1-0.1-0.2-0.2-0.3c0-0.1,0-0.1,0.1-0.2c0.2-0.2,0.4,0,0.5,0c-0.2-0.1-0.3-0.2-0.5-0.3c-0.3-0.4-0.8-0.2-1-0.2
		c0.2,0,0.7-0.2,1,0.3c0,0.1,0,0.2-0.2,0.3c-0.6,0.3-1.3,0.1-1.9,0.4c-1.1,0.1-2.2,0.1-3.3,0c-0.5-0.2-1-0.2-1.5,0
		c-1.2,0.1-2.4,0.2-3.5-0.1c-0.1-0.1-0.2-0.1-0.3-0.2c-0.1-0.2-0.2-0.4-0.5-0.4c0.1,0.1,0.3,0.3,0.1,0.5c-0.7,0.5-1.4,0.1-2.1-0.1
		c-0.7-0.7-1.5-0.7-2.4-0.5c-1.1,0.2-2,0-2.7-0.9c-0.3,0.7,1.3,0.6,0.5,1.5c-0.8,0.2-1.6,0.3-2.4-0.2c0-0.2,0-0.3,0-0.5
		c0.7-0.5,0.8-1.4,1.4-2c0.3-0.1,0.5-0.3,0.3-0.6c0.9-1.5,1.7-2.9,2.6-4.4c0.2-0.2,0.8-0.1,0.4-0.7c0.7-1.1,1.3-2.3,2-3.4
		c0.3,0,0.4-0.1,0.2-0.4c0.1-0.5,0.4-0.9,0.7-1.3c0.4-0.1,0.4-0.4,0.3-0.6c1.1-1.9,2.2-3.7,3.3-5.6c0.3-0.1,1.1,0.5,0.7-0.5
		c-0.1-0.3,0.1-0.5,0.1-0.8c0-0.1,0.1-0.1,0.2-0.1c0.3-0.2,0.6,0,1-0.1c0.8-0.1,0.7-0.8,0.8-1.3c-0.1-0.1,0.4-0.3,0-0.4
		C21.8,141.3,21.6,141.1,21.6,140.8z"/>
	<path fill="#010101" d="M41.5,106.3c2.2-3.9,4.4-7.8,6.6-11.6c7.6-13.3,15.3-26.5,23-39.8c3.3-5.7,6.7-11.5,10-17.2
		c0.1-0.2,0.2-0.5,0.3-0.8c0.1-0.8,0.5-1.4,1.1-1.9c1.4-2.3,2.7-4.6,4.1-7c0.1,0,0.2,0,0.2,0c1.8,2.1,1.2,4.1,0,6.3
		c-2.5,4.3-4.7,8.9-7,13.3c-1.3,3.2-2.9,6.2-4.7,9.1c-0.5,0.8-0.7,1.8-1.1,2.6c-2.8,5.4-5.7,10.8-8.5,16.2
		c-4.5,8.6-9,17.3-13.6,25.9c-0.9,1.7-1.7,3.4-2.7,5c-0.4,0.5-0.4,1.4-1.1,1.7c-0.2-0.1-0.4-0.2-0.6-0.4c-1.2-1-2.7-0.8-3.9-0.5
		C42.3,107.6,42,107,41.5,106.3z"/>
	<path fill="#C2C2C2" d="M44.2,165c0-0.1,0-0.1,0-0.2c0.6-0.2,1.1-0.4,1.7-0.1c0.3,0,0.6,0,1,0.1c0,0.1,0,0.2,0,0.2
		C45.9,165,45,165,44.2,165z"/>
	<path fill="#010101" d="M31.7,125.9c0,0.3,0.1,0.5,0.4,0.4c5.9-0.5,11.7-0.1,17.6-0.2c1.2,0,2.5,0,3.7,0c-0.1,0.7-0.5,1-1.2,1
		c-7,0-14,0-21,0c-0.5,0-0.9-0.1-0.8-0.7c-0.1-0.5,0-1,0.4-1.3c0.3-0.3,0.4-0.6,0.4-1.1c0.5-0.9,1-1.9,1.6-2.7
		c0.2,0.1,0.3,0.2,0.4,0.4c0.1,0.2,0.3,0.2,0.4,0c0.2-0.2,0.1-0.3-0.2-0.4c-0.4-0.1-0.2-0.4-0.3-0.7c0.5-0.9,0.9-1.8,1.6-2.7
		c0.4-0.2,0.7,0.1,1,0.1c-0.4-0.2-0.5-0.6-0.5-1c0.4-0.6,0.6-1.4,1.1-1.9c0.2-0.2,0.4-0.4,0.4-0.7c0.3-0.7,0.6-1.3,1.1-1.9
		c0.2,0.1,0.2,0.2,0.4,0.3c0.3,0.1,0.5-0.1,0.5-0.4c-0.1,0.2-0.2,0.5-0.6,0.3c-0.3-0.4,0.2-0.7,0.1-1c0.1-0.4,0.3-0.7,0.5-0.9
		c0.4-0.2,0.9-0.3,1.4-0.3c1.2-0.1,2.5,0,3.7,0c0.6,0,1.1,0,1.5,0.5c0.5,0.5-0.2,0.9-0.1,1.5c0.5-0.2,0.5-0.6,0.7-0.9
		c0.1-0.2,0.2-0.4,0.4-0.5c0.3-0.2,0.5-0.5,0.6-0.8c0.1-0.1,0.1-0.3,0.2-0.4c0.2-0.4,0.5-0.6,0.7-1c0.1-0.2,0.2-0.4,0.5-0.4
		c0.3,0,0.6,0.7,0.9,0c1.5,0.3,2.9,0.2,4.4,0.2c0.5,0,1.1-0.1,1.2,0.5c0.2,0.6,0.2,1.2-0.4,1.6c-0.4-0.5-0.9-0.6-1.7-0.5
		c-0.9,0.2-1.9,0-2.8,0.1c1,0.4,1.9,0.2,2.9,0.1c0.5-0.1,0.9-0.1,1.4,0.2c0.4,0.3,0.1,0.7,0.2,1.1c0,0.4-0.1,0.8-0.6,0.9
		c-0.3,0-0.4-0.1-0.6-0.3c0,0.4,0.5,0.4,0.6,0.7c0,0.5-0.3,0.8-0.7,1.1c-0.7,0.3-1.2,0.7-1,1.6c0,0.1,0,0.2,0,0.3
		c-0.1,0.2-0.2,0.5-0.3,0.7c-0.2,0.3-0.3,0.5-0.5,0.8c-0.1,0.1-0.2,0.1-0.3,0.2c-0.3,0.2-0.8,0.3-0.6,0.8c0.4,0,0.4-0.3,0.6-0.5
		c0.1-0.2,0.3-0.4,0.4-0.6c0.2-0.2,0.3-0.5,0.5-0.7c0.1-0.2,0.2-0.4,0.3-0.5c0.1-0.2,0.1-0.4,0.3-0.6c4.6-7.9,9.2-15.7,13.8-23.6
		c4.7-8.1,9.5-16.1,14.2-24.2c0.2-0.4,0.4-0.8,0.9-1C85,60.8,88.4,54.9,91.9,49c1.1-2,2.3-3.9,3.5-6c0.5,0.8,0.9,1.5,1.3,2.1
		c0.4,0.7,0.4,1.3,0,2c-4.1,7.8-8.2,15.5-12.2,23.3c-1,1.9-2,3.8-2.9,5.7c0.1,0.4-0.1,0.7-0.3,1c-3,5.9-6.1,11.8-9.2,17.6
		c-4.3,8.1-8.4,16.1-12.7,24.2c-0.7,1-1.1,2.2-1.8,3.3c-0.1,0.1-0.2,0.1-0.3,0.2c-0.5,0.1-0.7,0.4-0.5,0.9c0,0.4-0.3,0.8-0.4,1.2
		c-0.1,0.3-0.3,0.5-0.6,0.6c-1.2,0.1-1.2,0.2-0.8,1.6c0,0.1,0,0.1,0,0.2c0,0.3,0.3,0.6,0.2,1c-0.8-0.4-1.4-0.9-1.4-1.9
		c0-0.5-0.3-0.8-0.9-0.8c-6.7,0-13.4,0-20.1,0c-0.2,0-0.3,0.1-0.5,0.2C32,125.6,31.7,125.7,31.7,125.9z"/>
	<path fill="#010101" d="M61.4,128.1c-0.3-0.3-0.2-0.7-0.2-1c-2.1,0-4.2,0.3-6.3-0.2c0,0,0,0,0,0c-0.1-0.6,0.1-1,0.8-0.9
		c0.2,0,0.3,0,0.2-0.2c0-0.1-0.1-0.1-0.1-0.2c0-0.4,0.3-0.7,0.5-1c0.1-0.1,0.2-0.1,0.3-0.1c0.6,0.1,0.6-0.3,0.7-0.7
		c0.2-0.3,0.2-0.9,0.8-0.9c0.2,0.3,0,0.6,0.2,0.9c-0.1-0.3-0.1-0.6-0.2-0.9c-0.1-0.1-0.3-0.2-0.4-0.3c0.2-1.3,1-2.1,1.6-3.2
		c4-7,8.2-14,12.3-21c4.1-7,8.2-13.9,12.2-20.9c0.2-0.4,0.6-0.8,0.9-1.1c3-5.1,6-10.2,9-15.3c2-3.4,4-6.9,6.1-10.4
		c0.7,0.8,1.1,1.6,1.5,2.5c0.3,0.6,0,1.2-0.3,1.8c-4.8,9.1-9.5,18.1-14.3,27.2c-0.1,0.2-0.2,0.5-0.3,0.8c-0.4,1.8-1.5,3.3-2.3,4.8
		c-1.4,2.6-2.7,5.2-4,7.7c-4.5,8.7-9.1,17.3-13.6,26c-0.8,1.5-1.5,2.9-2.3,4.3c-0.3,0.5-0.5,1.1-1,1.5c-0.3,0.2-0.5,0.6-0.8,0.8
		C62,128.4,61.7,128.5,61.4,128.1z"/>
	<path fill="#010101" d="M54.5,110.6c0.6-0.3,0.4-1,0.3-1.4c-0.1-0.4-0.7-0.2-1-0.2c-1.2-0.1-2.4,0-3.5-0.1c-0.4,0-0.7-0.3-1-0.4
		c-0.3,0.1-0.4-0.1-0.6-0.3c-0.1-0.5,0.2-0.9,0.4-1.3c0.9-1.6,1.8-3.3,2.8-4.9c4.9-8.4,9.8-16.8,14.7-25.1
		c4.8-8.2,9.6-16.4,14.4-24.6c0.3-0.4,0.5-0.9,1-1.2c2.3-3.8,4.5-7.7,6.8-11.5c0.8-1.3,1.6-2.7,2.4-4c0.3,0.3,0.5,0.6,0.7,0.9
		c0.4,0.4,0.9,0.8,0.9,1.5l0,0c0.4,0.6,0.5,1.2-0.2,1.6c-4.2,8.1-8.5,16.1-12.7,24.2c-0.1,0.2-0.2,0.5-0.3,0.8
		c0.1,0.3-0.1,0.6-0.2,0.9c-3.1,6.1-6.3,12.1-9.5,18.2c-4.7,9.1-9.5,18.1-14.3,27.2c-0.2,0.4-0.3,0.9-0.9,0.9
		C54,111.2,54.6,110.9,54.5,110.6z"/>
	<path d="M56.7,148c-0.8-0.5,0.2-0.8,0.2-1.2c0-0.7,0.6-1.1,0.5-1.9c-0.1-0.6,0.7-0.4,1.2-0.3C58.1,145.8,57.4,147,56.7,148z"/>
	<path d="M48.2,162.7c-0.3,0-0.6-0.3-0.6-0.5c0.3-0.8-0.1-1.3-0.4-2c1.4-0.1,1.4-0.1,1.1,1.2c-0.2,0.6,0.2,0.3,0.4,0.3
		C48.7,162.1,48.5,162.4,48.2,162.7z"/>
	<path d="M49.6,160.2c-0.2-0.1-0.4-0.2-0.8-0.3c0.6-0.2,1.2-0.4,0.9-1.2c-0.1-0.2-0.1-0.5,0.2-0.6c0.4,0,0.3,0.4,0.4,0.6
		C50.3,159.4,50,159.8,49.6,160.2z"/>
	<path d="M52.8,154.7c-0.5,0-0.7-0.6-0.5-0.8c0.3-0.3,0.6,0.1,0.8,0.4C53.1,154.5,53,154.6,52.8,154.7z"/>
	<path d="M55.4,150.2c0-0.5-0.2-1.2,0.7-1.2C56,149.4,55.8,149.8,55.4,150.2z"/>
	<path fill="#ACACAC" d="M147.3,158.1c0.6-0.1,1.2-0.1,1.8,0.1c-0.6,0.2-1.2,0.1-1.8,0.1C147.4,158.2,147.4,158.2,147.3,158.1z"/>
	<path fill="#0B0B0B" d="M83.7,101.2c-0.2-0.4-0.5-0.9,0.4-0.7C84,100.7,83.9,101,83.7,101.2z"/>
	<path d="M51.8,156.4c-0.2-0.2-0.2-0.6-0.1-0.8c0.1-0.1,0.3,0.2,0.3,0.3C52.1,156.2,52,156.3,51.8,156.4z"/>
	<path fill="#010101" d="M41.5,106.3c0.3,0.4,1,0.1,1,0.8c0,0.2,0.1,0.3,0.3,0.2c1.2-0.7,2.5-0.1,3.8-0.3c0.5-0.1,0.8,0.5,1.2,0.7
		c-0.6,0.7-1.4,1.3-1.7,2.3c-1.2,0.4-2.5,0.2-3.8,0.2c-0.8,0-1.5,0-2.2,0.2c-0.3,0-0.5-0.1-0.7-0.3c0.4-0.9,0.9-1.8,1.5-2.6
		c0,0,0.1,0.1,0.1,0.1c0.2,0.2,0.5,0.3,0.7,0.5c1.3,0.9,2.7,0.4,4.1,0.3c-1.4-0.3-2.8,0.1-4.1-0.4c-0.1-0.1-0.2-0.2-0.3-0.4
		c0-0.2,0-0.5-0.1-0.7C41.2,106.7,41.2,106.4,41.5,106.3z"/>
	<path fill="#060606" d="M22.3,141.8c0,0.8,0.1,1.5-1,1.7c0-0.1-0.1-0.4-0.2-0.3c-0.4,0.1-0.6-0.1-0.7-0.4c0.2-0.6,0.5-1,0.9-1.5
		C21.7,141.2,22,141.5,22.3,141.8z"/>
	<path d="M23.5,137.5c0.3,0.3,1,0.5,0.5,1c-0.3,0.4-0.6,1.3-1.4,0.6C22.8,138.5,23.1,137.9,23.5,137.5z"/>
	<path d="M25.6,133.8c0.7,0.8-0.6,1.4-0.1,2.1c-0.5,0.1-0.6-0.2-0.8-0.5C24.9,134.8,25.2,134.3,25.6,133.8z"/>
	<path d="M33.2,120.7c0.1,0.2,0.2,0.5,0.2,0.5c0.6-0.2,0.7,0.4,0.7,0.6c-0.1,0.3-0.4,0.5-0.9,0.5c-0.7,0,0-0.5-0.3-0.7
		c-0.1,0-0.1-0.1-0.1-0.2C33,121.1,33.1,120.9,33.2,120.7z"/>
	<path d="M31.2,124c0.7,0.4-0.2,0.8,0,1.1c-0.6,0.2-0.5,0.8-0.8,1.3c-0.2-0.1-0.3-0.1-0.5-0.2C30.4,125.5,30.8,124.7,31.2,124z"/>
	<path d="M20.2,143.9c0.2,0.2,0.4,0.5,0.7,0.9c-0.6,0-1.1,0.5-1.4-0.2c0.1-0.2,0.2-0.4,0.3-0.6C19.9,143.8,20,143.8,20.2,143.9z"/>
	<path d="M35.3,117.1c0.4,0.2,0.1,1.1,1.1,0.8c-0.7,0.7-1.2,0.5-1.6,0.1C34.8,117.6,35,117.3,35.3,117.1z"/>
	<path d="M29.3,127.4c1.4,0.3,0.3,1,0.2,1.5c-0.1-0.4-0.2-0.7-0.5-1C29.1,127.7,29.2,127.5,29.3,127.4z"/>
	<path d="M20.4,142.7c0.8,0.6,1.1-0.1,1.4-0.9c0.4,0.9-0.4,1.1-0.5,1.6c-0.4,0-0.7-0.1-1-0.3C20.4,143,20.4,142.9,20.4,142.7z"/>
	<path d="M12.9,155.9c0.2,0,0.5,0,0.8,0c-0.3,0.5-0.5,1-1.2,0.7C12.5,156.3,12.6,156.1,12.9,155.9z"/>
	<path d="M22.3,141.8c-0.4,0-0.8-0.2-1-0.5c0-0.2,0.1-0.3,0.2-0.4C21.8,141.1,22.6,141.1,22.3,141.8z"/>
	<path d="M39.3,110.1c0.2,0.1,0.3,0.2,0.5,0.3c0.1,0.2,0.1,0.3,0,0.5c-0.3,0.1-0.6,0.2-0.9,0C38.9,110.5,39.1,110.3,39.3,110.1z"/>
	<path d="M16.1,150.2c0.2,0.2,0.4,0.5,0.2,0.8c-0.2,0.2-0.4,0.1-0.5-0.1C15.9,150.6,16,150.4,16.1,150.2z"/>
	<path fill="#010101" d="M41.2,107c0.3,0.1,0.7,0.1,0.3,0.5c-0.2,0.3-0.4,0.4-0.7,0.1l0-0.1C40.8,107.2,40.9,107,41.2,107z"/>
	<path d="M9.9,161c0.3,0.1,0.5,0.2,0.3,0.5c-0.1,0.2-0.3,0.6-0.6,0.2C9.7,161.4,9.8,161.2,9.9,161z"/>
	<path d="M28.8,128.3c0.4,0.7-0.2,0.7-0.6,0.9C28.3,128.9,28.5,128.6,28.8,128.3z"/>
	<path d="M15.1,152.1c0.2,0,0.4-0.2,0.4,0.1c0,0.2-0.2,0.8-0.7,0.3C14.9,152.3,15,152.2,15.1,152.1z"/>
	<path d="M38.2,112.7c-0.1-0.1-0.2-0.1-0.2-0.2c0-0.3,0.2-0.6,0.4-0.8C38.7,112.2,38.2,112.4,38.2,112.7L38.2,112.7z"/>
	<path d="M36.8,114.4c0.7,0.7-0.2,0.5-0.4,0.7C36.5,114.9,36.7,114.6,36.8,114.4z"/>
	<path fill="#060606" d="M20.2,143.9c-0.1,0-0.3,0-0.4,0c0.1-0.3,0.2-0.5,0.4-0.7C20.4,143.5,20.3,143.7,20.2,143.9z"/>
	<path fill="#3F3F3F" d="M157.7,135.8c0-0.4-0.4-0.2-0.5-0.4c1.1,0,2.3,0,3.5,0C159.7,136,158.6,135.6,157.7,135.8z"/>
	<path fill="#0A0A0A" d="M201.7,149.4c0.2,0.4,0,0.6-0.2,0.9c-0.1,0-0.2,0-0.2-0.1C201.1,149.7,201.3,149.5,201.7,149.4z"/>
	<path d="M39.9,137.1c-0.3,0.2-0.3,0.3-0.4,0.3c-0.7,0.3-1.4,0.2-1.4,1.7c0.1,1.4,0.7,0.8,1.2,0.9c0.4,0.1,0.5-0.1,0.6-0.6
		c0-1,0.7-0.7,1.1-0.3c1,1.1,2.4,1.2,3.7,1.6c0.4,0.1,1.4-0.1,0.5,0.8c-0.3,0.3-0.1,0.5,0.1,0.7c0.3,0.4,0.6,0.8,0.8,1.1
		c0.7-0.6,3.1-1.1,4-0.7c0.1,0.1,0.3,0.2,0.3,0.3c-0.3,2.1,0.4,4.2,0.2,6.3c-0.1,0.7,0.4,1.5-0.5,2c-0.1,0-0.1,0.2-0.1,0.2
		c1.1,0.8-0.2,1.9,0.4,2.7c0.1,0.2,0,0.4-0.2,0.5c-0.2,0.1-0.4,0.2-0.5,0.3c-0.8,2.8-3.3,3.4-5.6,4.4c-0.4,0.2-1,0-1.1,0.8
		c0,0.3-4,0.3-4,0c-0.1-0.8-0.6-0.6-1.1-0.6c-0.8,0-1.6,0-2.4,0c-1.5,0-2.4-0.9-3.3-2c-0.9-1.1-0.7-2.2-0.8-3.3
		c-0.1-0.8-0.2-1.5-1.2-1.4c-0.2,0-0.6-0.1-0.5-0.3c0.4-1.5-0.4-2.9-0.1-4.4c0,0,0-0.1,0-0.1c0-1.6,0-1.6,1.8-1.6c0.3,0,0.6,0,1,0
		c0.3,0,0.6-0.1,0.5-0.3c-0.3-0.7-0.2-1.6-1-2c-0.6-0.4-1.2-0.9-2.1-0.8c-0.4,0-0.3-0.5-0.4-0.6c-0.6-0.6-1.2-1.2-2.2-1.1
		c-0.2,0-0.6-0.1-0.6-0.4c0-0.4,0.4-0.5,0.6-0.5c1.9,0,1.9-1.7,2.5-2.8c0.2-0.3,0.2-0.7,0.6-0.9c0.5-0.4,1.3-0.7,1-1.7
		c1.2-0.3,1.1-1.8,2.1-2.3c0.4-0.2,1.1-0.5,0.8-1.3c-0.1-0.3,0.2-0.4,0.5-0.4c0.3,0,0.5,0.1,0.4,0.4c-0.1,0.6,0.3,0.8,0.6,1
		c0.4,0.3,0.8,0.5,0.5,1.1c0,0.1,0.1,0.4,0.1,0.4C37.6,134.9,37.9,137,39.9,137.1z"/>
	<path d="M15.1,164.1c-1.4,0-2.9,0-4.3,0c-1.2-0.7-1.5-1.2-0.8-1.8c0.3-0.3,0.5-0.3,0.6,0.1c0.3,1.2,0.8,1.4,2.1,1.2
		C13.5,163.4,14.5,162.9,15.1,164.1z"/>
	<path d="M36,164.6c-1.4,0-2.7,0-4.1,0c0.4-0.3,0.9-0.2,1.4-0.2c0.4,0,0.8,0,0.7-0.6c-0.1-0.5,0.4-0.5,0.7-0.6
		c0.6-0.1,1.1,0.1,1.5,0.5C36.7,164.1,36.1,164.2,36,164.6z"/>
	<path d="M45.8,164.8c-0.6,0-1.1,0.1-1.7,0.1c-0.1,0-0.2-0.1-0.2-0.1c-0.3-0.8-1-1-1.7-1c0.9-0.2,1.6-0.2,2.2,0.6
		c0.2,0.2,0.2,0.2,1.1-0.3c0.2-0.1,0.4-0.5,0.7,0C46.7,164.7,45.9,164.5,45.8,164.8z"/>
	<path d="M58.1,134.7c0.4,0,0.7,0,0.6,0.5c0,0.3,0,0.8-0.4,0.6c-0.5-0.2-0.8-0.7-1.3-0.6C57.2,134.6,57.9,134.9,58.1,134.7z"/>
	<path d="M41.6,164c-0.1,0.5-0.5,0.6-0.9,0.6c-0.4,0-0.8,0-0.8-0.4c0-0.5,0.5-0.3,0.7-0.3C40.9,163.9,41.2,163.7,41.6,164z"/>
	<path d="M28.3,163.9c-0.6,0-1.3,0-2,0C27.3,163.2,28.1,163.2,28.3,163.9L28.3,163.9z"/>
	<path d="M18.3,164c0.9-0.6,1.5-0.3,2.1-0.3C19.9,164.3,19.3,164.1,18.3,164z"/>
	<path d="M63,127.2c-0.3,0.5-0.6,1.1-0.9,1.6c-0.4,0-0.6-0.3-0.7-0.7c0.4,0.3,0.7,0,0.9-0.3C62.5,127.5,62.6,127.2,63,127.2z"/>
	<path d="M38.2,164.6c-0.5,0.1-1,0.1-1.5,0C37.2,164.3,37.7,163.8,38.2,164.6z"/>
	<path fill="#070707" d="M60,133.2c0,0.6-0.3,1.1-0.8,1.6c-0.3-0.4,0.1-0.6,0.1-0.8C59.4,133.6,59.6,133.3,60,133.2z"/>
	<path d="M11.8,158.5c0.1-0.2,0.2-0.3,0.4-0.3c0.2,0,0.4,0.2,0.4,0.4c0,0.2-0.3,0.1-0.5,0.2C12,158.8,11.8,158.7,11.8,158.5z"/>
	<path d="M15.5,153c0.2-0.5,0.3-0.9,0.5-1.5C16.1,152.3,16.2,152.7,15.5,153z"/>
	<path d="M27.1,131.2c0.2,0,0.4,0.1,0.5,0.3c0.1,0.2,0.4,0.4,0,0.6c-0.3,0.1-0.4-0.1-0.4-0.4C27.2,131.5,27.2,131.4,27.1,131.2
		C27.1,131.2,27.1,131.2,27.1,131.2z"/>
	<path d="M60,133.2c-0.2,0.3-0.5,0.5-0.7,0.8c-0.1-0.4,0.1-0.8,0.4-1C60,132.6,59.9,133.1,60,133.2z"/>
	<path d="M28.3,164.4c-0.6,0.1-1.3,0.1-1.9,0c0.6-0.5,1.3-0.1,1.9-0.3c0,0,0,0,0,0C28.3,164.2,28.3,164.3,28.3,164.4z"/>
	<path d="M31.7,125.9c-0.2-0.1-0.2-0.3-0.1-0.5c0.2-0.3,0.4-0.1,0.6,0C32.1,125.8,32,125.9,31.7,125.9z"/>
	<path d="M44.5,163.4c0.3,0.1,0.6,0.2,1,0.4c-0.5,0.2-0.8,0.1-1.1-0.2C44.4,163.6,44.4,163.5,44.5,163.4z"/>
	<path d="M14.9,154.2c0.1,0.2,0.2,0.3,0.1,0.3c-0.1,0.1-0.2,0.2-0.4,0.2c-0.1,0-0.2-0.1-0.1-0.2C14.6,154.5,14.7,154.4,14.9,154.2z"
		/>
	<path d="M28.3,163.8c0.3,0.1,0.6,0.2,1,0.3c-0.4,0.3-0.7,0-1-0.1c0,0,0,0,0,0C28.3,164,28.3,163.9,28.3,163.8
		C28.3,163.9,28.3,163.8,28.3,163.8z"/>
	<path d="M17.7,164.1c-0.1,0-0.3,0-0.4,0c-0.1-0.1-0.6-0.2-0.3-0.4C17.4,163.5,17.6,163.8,17.7,164.1z"/>
	<path d="M31.8,164.1c-0.1-0.1-0.3-0.1-0.3-0.2c-0.1-0.2,0.1-0.3,0.3-0.2c0.1,0,0.2,0.1,0.2,0.2C32,163.9,31.9,164,31.8,164.1z"/>
	<path fill="#0A0A0A" d="M60.1,134.5c0-0.2,0.1-0.4,0.3-0.3c0.1,0,0.2,0.2,0.2,0.3c0,0.1-0.1,0.3-0.2,0.4
		C60.3,134.8,60.2,134.6,60.1,134.5z"/>
	<path fill="#0B0B0B" d="M82.5,101.4c0.1-0.1,0.1-0.4,0.3-0.2c0.1,0.1,0.1,0.3,0.1,0.4c0,0.1-0.2,0.2-0.2,0.2
		C82.5,101.8,82.4,101.6,82.5,101.4z"/>
	<path d="M56.1,147.4c0,0.2,0,0.3,0,0.5c0,0.1-0.1,0.2-0.2,0.1c-0.1-0.1-0.1-0.3-0.1-0.4C55.9,147.5,56,147.5,56.1,147.4z"/>
	<path d="M22.8,164.3c-0.4,0-0.8,0-1.2,0C22,164,22.4,164,22.8,164.3z"/>
	<path d="M46.1,109.8c-0.2-1.3,0.7-1.8,1.7-2.2c0.2,0.1,0.2,0.3,0.2,0.5c0.2,0.1,0.1,0.3,0.1,0.4c-0.1,0.5-0.7,0.7-0.6,1.2
		c-0.1,0.1-0.2,0.2-0.2,0.3c-0.1,0.2-0.3,0.4-0.5,0.4C46.3,110.5,46,110.4,46.1,109.8z"/>
	<path fill="#090909" d="M78.8,47.3c0.1,0.1,0.2,0.2,0.2,0.4c0.1,0.2-0.1,0.3-0.2,0.3c-0.1,0-0.2-0.2-0.3-0.3
		C78.5,47.5,78.6,47.4,78.8,47.3z"/>
	<path fill="#010101" d="M55.4,124c0,0.2-0.1,0.4-0.3,0.4c-7.2-0.3-14.4-0.1-21.6-0.2c-0.6,0-1.3,0.1-1.4-1c7.7,0,15.4,0,23.1,0
		C54.9,123.7,55.7,123.7,55.4,124z"/>
	<path fill="#010101" d="M46.1,109.8c0.1,0.3,0.4,0.5,0.7,0.5c0.2,0.3,0,0.5-0.2,0.7c-0.1,0.2-0.2,0.4-0.3,0.5
		c-0.3,0.1-0.5,0-0.7-0.2c-0.5-0.4-1-0.5-1.6-0.5c-1.4,0-2.7,0-4.1,0c0-0.2,0-0.3,0-0.5c0.1-0.2,0.3-0.4,0.5-0.4
		C42.3,109.9,44.2,109.9,46.1,109.8z"/>
	<path fill="#010101" d="M51.8,109.9c0.6-0.3,1.5,0.6,2-0.5c0.1-0.1,0.3,0,0.4,0.1c0.2,0.3,0.4,0.6,0.3,1c0,0.2-0.2,0.2-0.3,0.2
		c-1.1-0.2-2.2,0.2-3.3,0.1c-0.4,0-0.7,0-1-0.2c-0.2-0.1-0.3-0.2-0.3-0.5c0-0.2,0.2-0.3,0.4-0.3C50.5,109.9,51.1,109.9,51.8,109.9z"
		/>
	<path fill="#010101" d="M55.9,125.5c0.1,0.3,0.7,0.2,0.5,0.6c0,0.1-0.3,0.7-0.8,0.1c-0.4-0.4-0.4,0.4-0.6,0.6
		c-0.9-0.4-0.6-1.2-0.4-1.8c0.2-0.6,0.8-0.1,1.2-0.1C55.9,125.1,55.9,125.3,55.9,125.5z"/>
	<path d="M45.6,111.3c0.2,0.1,0.5,0.2,0.7,0.2c0,0.1-0.1,0.1-0.1,0.2c-0.2,0.5-0.3,1.1-1,1.2c-0.2,0-0.3-0.1-0.3-0.3
		C44.8,112,45.2,111.7,45.6,111.3z"/>
	<path d="M53.3,113.9c-0.2,0.4-0.3,0.8-0.5,1.2c-0.2,0.3-0.1,0.7-0.5,0.8C51.9,114.7,52.1,114.4,53.3,113.9z"/>
	<path d="M50.7,118.7c-0.7-0.7-0.5-1.1,0.8-1.4c0.1,0.2,0.1,0.3,0,0.5C51.2,118.1,51.2,118.6,50.7,118.7z"/>
	<path d="M57.2,121.6c-0.7,0.2-1.1,0.7-1.3,1.6C55.7,121.8,56,121.5,57.2,121.6z"/>
	<path d="M54,112.5c0,0.2,0,0.3-0.1,0.5c-0.5-0.3-1.4-0.5-0.4-1.3C53.7,111.9,53.7,112.3,54,112.5z"/>
	<path d="M56.6,123.3c-0.6-0.3-0.1-0.7,0-0.9c0.1-0.2,0.3-0.3,0.5,0c0.3,0.4,0.1,0.7-0.2,1C56.8,123.4,56.7,123.4,56.6,123.3z"/>
	<path d="M38.2,112.7c0.6,0,0.6-0.9,1.5-0.7C39.1,112.4,39,113.2,38.2,112.7L38.2,112.7z"/>
	<path d="M48.5,108.4c0.1-0.1,0.1-0.2,0.2-0.3c0.2,0.1,0.4,0.2,0.6,0.3c-0.1,0.3,0.3,0.7-0.1,1.1C48.9,109.1,48.9,108.7,48.5,108.4z
		"/>
	<path d="M55.4,124c-0.1-0.2-0.5-0.4-0.2-0.7C55.4,123.5,55.9,123.6,55.4,124z"/>
	<path fill="#010101" d="M60.1,125.2c0.8,0,1.6,0,2.4,0c0.3,0,0.5-0.1,0.5,0.3c0,0.3,0.1,0.7-0.4,0.7c-1.7,0-3.3,0-5,0
		c-0.3,0-0.5-0.3-0.5-0.6c0-0.5,0.4-0.3,0.6-0.3C58.5,125.2,59.3,125.2,60.1,125.2C60.1,125.2,60.1,125.2,60.1,125.2z"/>
	<path fill="#010101" d="M57.1,123.5c0.1-0.1,0.2-0.2,0.3-0.3c0.2,0.2,0.1,0.3,0,0.5c0.2,0.3,0.3,0.6-0.1,0.9
		c-0.3,0.3-0.5,0-0.6-0.2C56.8,124.2,56.9,123.8,57.1,123.5z"/>
	<path d="M58.1,122.8c0.2,0.5,1.3,1,0,1.5C58.1,123.8,58.1,123.3,58.1,122.8L58.1,122.8z"/>
	<path d="M57.4,123.8c0-0.2,0-0.3,0-0.5c0.1-0.2,0.2-0.5,0.3-0.7c0,0,0.1,0,0.2,0c0.1,0.1,0.2,0.2,0.3,0.3c0,0,0,0,0,0
		C57.7,123.1,57.9,123.6,57.4,123.8z"/>
	<path d="M63.2,123.4c0.2,0,0.4,0.2,0.3,0.3c0,0.1-0.1,0.3-0.2,0.3c-0.2,0.1-0.3-0.1-0.3-0.3C63,123.7,63.1,123.6,63.2,123.4z"/>
	<path fill="#010101" d="M41.5,107.9c1.6,0,3.2,0,4.7,0c-0.6,1-0.6,1-1.8,1c-0.6,0-1.3,0-1.9,0C41.9,108.9,41.6,108.5,41.5,107.9
		L41.5,107.9z"/>
	<path d="M40.8,107.5c0.2,0.1,0.5,0.1,0.7-0.1c0,0.2,0,0.3,0,0.5c0,0,0,0,0,0C41.2,107.9,40.7,108.3,40.8,107.5z"/>
	<g>
		<path d="M186.9,76.5c0.1,0.1,0.2,0.2,0.3,0.3c0.2,0.2,0.5,0.3,0.6,0c0.1-0.2-0.1-0.5-0.2-0.8c0-0.1-0.3-0.2-0.4-0.2
			c-0.6-0.1-0.6-0.4-0.6-0.9c0.1-0.5,0.4-0.6,0.8-0.6c1.4,0.1,2.4,0.9,3.1,1.9c0.7,1,1.1,2.2,1.3,3.5c0.3,1.6,0.3,3.1,0,4.7
			c-0.6,3.1-2.7,4.7-5.7,5.3c-1.5,0.3-2.9,0-4.2-0.6c-1.8-0.8-3.2-2-4.4-3.7c-0.9-1.3-1.9-2.5-2.8-3.7c-0.3-0.4-0.7-0.6-1.2-1
			c0,0.3,0,0.4,0,0.5c-1.6,0-3.1,0-4.7,0c-1.6,0-2.8,0.7-3.7,2c-0.5,0.6-0.9,1.3-1.3,2c-0.1,0.1-0.2,0.3-0.3,0.5
			c0-0.2-0.1-0.3-0.1-0.3c0.1-2.7,0.1-5.4,0.3-8c0.2-2.2,1.2-3.9,3.4-4.7c2.3-0.8,4.5-0.6,6.3,1.1c1,1,1.9,2.1,2.7,3.2
			c1.4,2,2.8,4,4.2,6c1.5,2.2,3.7,3,6.3,2.8c0.4,0,0.9-0.4,1.2-0.7c0.8-1,0.5-2.7-0.6-3.4c-1-0.7-1.4-1.7-1.6-2.9
			C185.4,77.7,186.2,77.1,186.9,76.5z"/>
		<path d="M173.7,105.5c0,0.1,0,0.2-0.1,0.3c0.1,0,0.2,0,0.2,0c0.4-0.2,0.8-0.4,1.1-0.7c1-1.2,2-2.5,2.9-3.8
			c1.6-2.2,3.7-3.8,6.4-4.2c3.8-0.6,7.2,1.9,7.8,5.7c0.3,2.1,0.1,4.2-0.6,6.1c-0.6,1.7-1.5,3-3.3,3.5c-0.3,0.1-0.6,0.1-0.8,0.1
			c-0.4,0-0.6-0.3-0.6-0.7c0-0.4,0-0.7,0.5-0.8c0.2,0,0.4-0.1,0.5-0.2c0.3-0.2,0.3-0.5,0.2-0.8c-0.2-0.3-0.4-0.1-0.7,0
			c-0.1,0.1-0.2,0.2-0.4,0.3c-0.4-0.4-0.7-0.8-1.1-1.2c-0.1-0.1-0.1-0.2-0.1-0.3c0.1-1.6,0.4-3.1,2-4c0.6-0.4,0.9-1.7,0.6-2.7
			c-0.3-0.8-0.8-1.3-1.8-1.3c-2.5-0.1-4.6,0.8-6.1,3c-1.8,2.6-3.6,5.2-5.5,7.8c-1,1.3-2.1,2.4-3.8,2.8c-3,0.6-6.4-0.4-7.1-4.6
			c-0.3-1.8-0.3-3.7-0.4-5.5c0-1,0-2.1,0-3.3c0.2,0.3,0.3,0.4,0.3,0.5c0.5,0.7,0.9,1.4,1.4,2.1c0.9,1.2,2.1,1.9,3.6,1.9
			c1.1,0,2.1-0.1,3.2-0.1C172.6,105.4,173.1,105.4,173.7,105.5z"/>
		<path d="M132.1,109.6c0.5-0.2,0.8,0.1,1.1,0.4c0.9,1.1,1.8,2.1,2.7,3.2c0.2,0.2,0.3,0.5,0.4,0.8c-0.1,0.1-0.1,0.1-0.2,0.2
			c-0.6-0.2-1.1-0.4-1.6-0.7c-0.6-0.3-1.2-0.7-2-0.4c-0.2-0.5-0.1-1.2-0.9-1.3c-0.1,0.2-0.2,0.5-0.4,0.6c-0.2,0.1-0.6,0.1-0.8,0
			c-1.2-0.3-2-1.1-2.6-2.2c-0.8-1.4-1-3-1.2-4.6c-0.2-1.5,0-3,0.4-4.4c1.1-3.5,5.1-5.2,8.4-3.6c1.8,0.9,3.2,2.2,4.2,3.9
			c0.8,1.3,1.7,2.5,2.6,3.7c0.2,0.3,0.6,0.5,0.9,0.7c0.2-0.4,0.9-0.6,1.5-0.6c0.9,0.1,1.9,0.2,2.8,0.1c1.5,0,2.6-0.7,3.4-2
			c0.5-0.8,0.9-1.6,1.4-2.4c0,0.1,0.1,0.2,0.1,0.3c-0.1,2.6-0.1,5.2-0.3,7.8c-0.1,1.6-0.6,3.1-1.9,4.2c-2,1.6-5.2,1.7-7-0.6
			c-1.4-1.8-2.6-3.7-3.8-5.6c-0.8-1.2-1.5-2.4-2.3-3.6c-1.3-1.9-3.1-2.7-5.3-2.6c-1,0-1.7,1-1.6,2.2c0,0.9,0.3,1.6,1,2.1
			c0.8,0.6,1.2,1.5,1.3,2.5c0,0.2,0,0.3,0,0.5C132.7,108.8,132.5,109.3,132.1,109.6c-0.2,0.3-0.4,0.5-0.6,0.7
			c-0.2-0.2-0.2-0.3-0.4-0.3c-0.1-0.1-0.3-0.2-0.4-0.1c-0.1,0.1-0.2,0.3-0.2,0.4c0.1,0.2,0.2,0.4,0.4,0.6c0.2,0.2,0.5,0.2,0.8,0.3
			C131.8,110.7,131.9,110.1,132.1,109.6z"/>
		<path d="M132.2,76.5c0.1,0,0.1,0,0.1,0.1c0.4,0.5,1,1,1,1.5c0.1,1.4-0.2,2.7-1.4,3.7c-1,0.8-1.3,2.3-0.7,3.4
			c0.3,0.6,0.8,0.8,1.4,0.9c2.3,0,4.1-0.8,5.4-2.8c1.5-2.5,3.1-4.9,4.6-7.4c0.7-1.1,1.5-2,2.6-2.8c2.2-1.4,6.1-0.7,7.2,2.5
			c0.4,1.2,0.6,2.4,0.7,3.7c0.1,2.1,0.1,4.2,0.1,6.2c0,0.1,0,0.2-0.1,0.3c-0.4-0.6-0.8-1.3-1.1-1.9c-1-1.9-2.5-2.7-4.6-2.5
			c-0.7,0.1-1.3,0.2-2,0.1c-0.5,0-1.1,0.1-1.4-0.6c-0.4,0.3-0.8,0.5-1,0.9c-0.9,1.2-1.8,2.5-2.6,3.8c-1,1.6-2.3,2.7-3.9,3.6
			c-3.4,1.8-7.9-0.3-8.7-4c-0.6-2.6-0.4-5.2,0.4-7.7c0.3-1,0.9-2,1.8-2.6c0.4-0.3,1-0.5,1.5-0.6c0.4-0.1,0.8,0.1,0.9,0.5
			c0.1,0.4,0.1,0.8-0.5,1c-0.2,0.1-0.5,0.4-0.6,0.6c-0.1,0.1,0.1,0.4,0.2,0.5c0.1,0.1,0.3-0.1,0.4-0.2
			C132,76.7,132.1,76.6,132.2,76.5z"/>
		<path d="M187.9,93.7c-1.3,0.3-2.5,0.7-3.8,0.9c-3.7,0.8-7.4,1.6-11,2.3c-1.8,0.4-3.6,0.3-5.3-0.6c-0.1,0-0.2-0.1-0.2-0.1
			c-0.9-0.6-1.7-1.3-1.7-2.5c0-1.2,0.8-2,1.8-2.5c1.7-0.9,3.5-1.1,5.3-0.7c4.9,1,9.7,2.1,14.6,3.1C187.5,93.5,187.6,93.6,187.9,93.7
			z"/>
		<path d="M158.8,65.1c0.7,4,1.4,8,2.1,11.9c0.2,1.1,0.4,2.3,0.5,3.4c0.2,2-0.1,4-1.5,5.6c-1.3,1.5-3,1.5-4.2-0.1
			c-1.1-1.5-1.4-3.2-1.1-5c0.6-3.2,1.4-6.4,2.2-9.6c0.5-1.9,1-3.7,1.5-5.5c0.1-0.2,0.1-0.5,0.2-0.7
			C158.7,65.1,158.8,65.1,158.8,65.1z"/>
		<path d="M130.3,93.6c2-0.5,3.9-1,5.9-1.4c3.2-0.7,6.5-1.3,9.7-1.9c1.9-0.3,3.8,0.1,5.3,1.4c1.3,1.1,1.3,2.8,0,3.9
			c-0.2,0.2-0.4,0.4-0.7,0.5c-1.5,0.9-3.1,1.2-4.8,0.9c-3-0.5-6-1.1-9-1.8c-2-0.4-4.1-0.9-6.1-1.4c-0.1,0-0.3-0.1-0.4-0.1
			C130.3,93.6,130.3,93.6,130.3,93.6z"/>
		<path d="M157.3,121.5c-0.7-3.7-1.3-7.5-2-11.2c-0.2-1.3-0.5-2.7-0.6-4.1c-0.2-1.9,0.1-3.7,1.2-5.3c0.7-0.9,1.5-1.5,2.7-1.3
			c0.8,0.2,1.4,0.7,1.8,1.4c1.1,1.7,1.2,3.5,0.9,5.4c-0.9,5.1-2.4,10-3.8,14.9c0,0.1-0.1,0.2-0.1,0.2
			C157.4,121.5,157.3,121.5,157.3,121.5z"/>
		<path d="M181.7,72.7c0.4,0.1,0.8,0.2,1.2,0.4c0.5,0.2,0.9,0.5,1.4,0.6c0.4,0.1,0.8,0.1,1.3,0.2c0.1,0.2,0.1,0.4,0.2,0.7
			c-0.2,0.1-0.4,0.1-0.6,0.2c0,0,0,0.1,0,0.1c0.2,0,0.5,0,0.7,0c0.4,0,0.7,0.1,0.6,0.6c-0.1,0.5-0.2,0.9-0.4,1.3
			c-0.2,0.4-0.6,0.5-0.9,0.1c-1.1-1.2-2.3-2.4-3.4-3.6c-0.1-0.1-0.2-0.3-0.3-0.5C181.6,72.8,181.6,72.8,181.7,72.7z"/>
		<path d="M185.6,113c-0.9-0.3-1.6,0.2-2.4,0.5c-0.5,0.2-1,0.4-1.5,0.6c0-0.1-0.1-0.1-0.1-0.2c0.1-0.2,0.2-0.4,0.3-0.6
			c1.1-1.2,2.2-2.3,3.3-3.5c0.4-0.4,0.8-0.3,1,0.2c0.1,0.3,0.2,0.7,0.3,1c0.1,0.6,0,0.8-0.7,0.8c-0.2,0-0.4,0-0.6-0.1
			c0,0,0,0.1,0,0.1c0.2,0.1,0.4,0.1,0.6,0.2C185.8,112.4,185.7,112.7,185.6,113z"/>
		<path d="M137,72.9c-0.1,0.2-0.2,0.5-0.4,0.6c-0.9,1.1-1.9,2.2-2.8,3.3c-0.5,0.5-0.8,0.5-1.1-0.2c-0.1-0.2-0.1-0.3-0.1-0.5
			c-0.3-1.2-0.3-1.2,0.9-1.2c0,0,0.1,0,0.2-0.1c-0.3-0.1-0.4-0.1-0.6-0.2c0.1-0.3,0.1-0.5,0.2-0.8c0.8,0.2,1.4-0.2,2.1-0.5
			c0.5-0.2,1-0.4,1.5-0.6C136.9,72.7,136.9,72.8,137,72.9z"/>
		<path d="M153.3,93.8c0.1-2.2,1-3.7,2.7-4.7c2.4-1.3,5.4-0.8,7.2,1.2c1.9,2.1,1.7,5.3-0.4,7.2c-3.1,2.8-8.2,1.5-9.4-2.4
			C153.5,94.6,153.4,94.1,153.3,93.8z M153.6,93.7c0,0.2,0,0.6,0.1,0.9c0.8,3.6,5.1,5.3,8.3,3.3c2.8-1.8,3.2-5.5,0.7-7.8
			c-1.8-1.6-4.6-1.9-6.6-0.7C154.6,90.3,153.7,91.7,153.6,93.7z"/>
		<path d="M153.6,93.7c0.1-2,0.9-3.4,2.5-4.3c2-1.3,4.9-0.9,6.6,0.7c2.5,2.3,2.1,6-0.7,7.8c-3.1,2-7.5,0.3-8.3-3.3
			C153.6,94.2,153.6,93.9,153.6,93.7z"/>
	</g>
</g>
</svg>
